<svg xmlns="http://www.w3.org/2000/svg" width="72" height="73.938" viewBox="0 0 36 36.969">
  <defs>
    <style>
      .cls-1 {
        fill: #fff;
        fill-rule: evenodd;
      }
    </style>
  </defs>
  <path id="Rectangle_9_copy" data-name="Rectangle 9 copy" class="cls-1" d="M248.428,576.444c4.239-6.245,5.743-8.025,5.492-11.64s0.467-4.609,2.175-4.787,4.915,0.754,5.478,6.671c0.243,2.56-1.584,7.6-1.584,7.6l12.784,0.007c1.81,0,3.228.775,3.228,3.245,0,2.314-2.557,3.01-2.557,3.01a2.777,2.777,0,0,1,1.636,2.586A2.853,2.853,0,0,1,272.256,586a2.4,2.4,0,0,1,1.458,2.7,3.152,3.152,0,0,1-2.6,2.662,2.445,2.445,0,0,1,.9,2.791c-0.574,1.356-2.089,2.851-5.492,2.851H250.625a2.238,2.238,0,0,1-2.287-1.228V577.2A2.647,2.647,0,0,1,248.428,576.444ZM241,575.25h6.219V597H241V575.25Zm-1,0h6.219V597H240V575.25Z" transform="translate(-240 -560.031)"/>
</svg>
